# File created by Blade
# Date/Time:  Thu Jan 22 19:01:23 2015
#---------------------------------------------------------
:version 1.10
:name HOM
:units
  mass 1.0
  length 1.000000
  angle deg
:documentation
     Acclaim Skeleton File
:root
   axis xyz
   order TX TY TZ RX RY RZ
   position 0.000000 0.000000 0.000000
   orientation 0 0 0
:bonedata
   begin
      id 1
      name RightUpLeg_dum
      direction -1.000000 0.000000 0.000000
      length 4.478084
      axis 0.0 0.0 0.0 xyz
   end
   begin
      id 2
      name LeftUpLeg_dum
      direction 1.000000 0.000000 0.000000
      length 4.478084
      axis 0.0 0.0 0.0 xyz
   end
   begin
      id 3
      name Spine_dum
      direction 0.000000 1.000000 0.000000
      length 6.068208
      axis 0.0 0.0 0.0 xyz
   end
   begin
      id 4
      name RightUpLeg
      direction 0.000000 -1.000000 0.000000
      length 16.405774
      axis 0.0 0.0 0.0 xyz
      dof rx ry rz
   end
   begin
      id 5
      name RightLeg
      direction 0.000000 -1.000000 0.000000
      length 14.644143
      axis 0.0 0.0 0.0 xyz
      dof rx ry rz
   end
   begin
      id 6
      name RightFoot
      direction 0.000000 -0.258819 0.965926
      length 5.806150
      axis 15.0 0.0 0.0 xyz
      dof rx ry rz
   end
   begin
      id 7
      name RightToeBase
      direction 0.000000 0.000000 1.000000
      length 2.952750
      axis 0.0 0.0 0.0 xyz
      dof rx ry rz
   end
   begin
      id 8
      name LeftUpLeg
      direction 0.000000 -1.000000 0.000000
      length 16.405774
      axis 0.0 0.0 0.0 xyz
      dof rx ry rz
   end
   begin
      id 9
      name LeftLeg
      direction 0.000000 -1.000000 0.000000
      length 14.644143
      axis 0.0 0.0 0.0 xyz
      dof rx ry rz
   end
   begin
      id 10
      name LeftFoot
      direction 0.000000 -0.258819 0.965926
      length 5.806150
      axis 15.0 0.0 0.0 xyz
      dof rx ry rz
   end
   begin
      id 11
      name LeftToeBase
      direction 0.000000 0.000000 1.000000
      length 2.952750
      axis 0.0 0.0 0.0 xyz
      dof rx ry rz
   end
   begin
      id 12
      name Spine
      direction 0.000000 1.000000 0.000000
      length 0.000000
      axis 0.0 0.0 0.0 xyz
      dof rx ry rz
   end
   begin
      id 13
      name Spine_dum1
      direction 0.000000 1.000000 0.000000
      length 10.013923
      axis 0.0 0.0 0.0 xyz
   end
   begin
      id 14
      name Spine_dum2
      direction 0.000000 1.000000 0.000000
      length 10.013923
      axis 0.0 0.0 0.0 xyz
   end
   begin
      id 15
      name Spine_dum3
      direction 0.000000 1.000000 0.000000
      length 15.777476
      axis 0.0 0.0 0.0 xyz
   end
   begin
      id 16
      name RightShoulder
      direction -1.000000 0.000000 0.000000
      length 7.190220
      axis 0.0 0.0 90.0 xyz
      dof rx ry rz
   end
   begin
      id 17
      name RightArm
      direction -1.000000 0.000000 0.000000
      length 10.177469
      axis 0.0 0.0 90.0 xyz
      dof rx ry rz
   end
   begin
      id 18
      name RightForeArm
      direction -1.000000 0.000000 0.000000
      length 8.392114
      axis 0.0 0.0 90.0 xyz
      dof ry rz rx
   end
   begin
      id 19
      name RightHand
      direction -1.000000 0.000000 0.000000
      length 0.000000
      axis 0.0 0.0 90.0 xyz
      dof rx ry rz
   end
   begin
      id 20
      name RightHand_dum1
      direction -1.000000 0.000000 0.000000
      length 3.937000
      axis 0.0 0.0 90.0 xyz
   end
   begin
      id 21
      name RightHand_dum2
      direction 0.000000 0.000000 0.000000
      length 0.000000
      axis 0.0 0.0 90.0 xyz
   end
   begin
      id 22
      name RightHandThumb1
      direction 0.000000 0.000000 1.000000
      length 3.937000
      axis 0.0 0.0 90.0 xyz
      dof rx rz ry
   end
   begin
      id 23
      name LeftShoulder
      direction 1.000000 0.000000 0.000000
      length 7.190220
      axis 0.0 0.0 -90.0 xyz
      dof rx ry rz
   end
   begin
      id 24
      name LeftArm
      direction 1.000000 0.000000 0.000000
      length 10.177469
      axis 0.0 0.0 -90.0 xyz
      dof rx ry rz
   end
   begin
      id 25
      name LeftForeArm
      direction 1.000000 0.000000 0.000000
      length 8.392114
      axis 0.0 0.0 -90.0 xyz
      dof ry rz rx
   end
   begin
      id 26
      name LeftHand
      direction 1.000000 0.000000 0.000000
      length 0.000000
      axis 0.0 0.0 -90.0 xyz
      dof rx ry rz
   end
   begin
      id 27
      name LeftHand_dum1
      direction 1.000000 0.000000 0.000000
      length 3.937000
      axis 0.0 0.0 -90.0 xyz
   end
   begin
      id 28
      name LeftHand_dum2
      direction 0.000000 0.000000 0.000000
      length 0.000000
      axis 0.0 0.0 -90.0 xyz
   end
   begin
      id 29
      name LeftHandThumb1
      direction 0.000000 0.000000 1.000000
      length 3.937000
      axis 0.0 0.0 -90.0 xyz
      dof rx rz ry
   end
   begin
      id 30
      name Head
      direction 0.000000 1.000000 0.000000
      length 4.527550
      axis 0.0 0.0 0.0 xyz
      dof rx ry rz
   end
:hierarchy
   begin
      root RightUpLeg_dum LeftUpLeg_dum Spine_dum
      RightUpLeg_dum RightUpLeg
      LeftUpLeg_dum LeftUpLeg
      Spine_dum Spine
      RightUpLeg RightLeg
      RightLeg RightFoot
      RightFoot RightToeBase
      LeftUpLeg LeftLeg
      LeftLeg LeftFoot
      LeftFoot LeftToeBase
      Spine Spine_dum1 Spine_dum2 Spine_dum3
      Spine_dum1 RightShoulder
      Spine_dum2 LeftShoulder
      Spine_dum3 Head
      RightShoulder RightArm
      RightArm RightForeArm
      RightForeArm RightHand
      RightHand RightHand_dum1 RightHand_dum2
      RightHand_dum2 RightHandThumb1
      LeftShoulder LeftArm
      LeftArm LeftForeArm
      LeftForeArm LeftHand
      LeftHand LeftHand_dum1 LeftHand_dum2
      LeftHand_dum2 LeftHandThumb1
   end

# File created by Blade
# Date/Time:  Thu Jan 22 19:01:15 2015
# Frame Rate: 120.000 fps
#------------------------------------------------------
:FULLY-SPECIFIED
:DEGREES
888
root -2.910539 32.731559 -9.775092 65.614700 -2.422157 2.347809
RightUpLeg -76.081615 -2.758880 4.650754
RightLeg -1.021231 -0.000000 0.000000
RightFoot 5.022361 -1.663764 2.249826
RightToeBase 7.164799 -0.000000 -0.000000
LeftUpLeg -74.617296 3.457333 -3.861202
LeftLeg -2.453159 -0.000000 0.000000
LeftFoot 6.206450 2.446565 -10.404460
LeftToeBase 11.131124 -0.000000 -0.000000
Spine 43.718141 -5.154360 -5.747042
RightShoulder -47.131343 -60.310569 -1.692109
RightArm -4.144018 -16.750686 75.173325
RightForeArm -32.802500 -0.000000 2.510922
RightHand 4.313446 0.000000 52.219626
RightHandThumb1 -24.326973 -0.000000 -32.862282
LeftShoulder -39.720652 49.907660 7.851121
LeftArm -27.432926 12.120964 -87.195355
LeftForeArm 39.278459 -0.000000 0.113029
LeftHand 3.559175 0.000000 -49.031636
LeftHandThumb1 -26.253704 0.000000 33.147579
Head 22.562919 3.816282 -9.253957
889
root -2.914080 32.730993 -9.773499 65.619631 -2.424556 2.342594
RightUpLeg -76.086928 -2.750199 4.662839
RightLeg -1.012481 -0.000000 0.000000
RightFoot 5.003573 -1.657749 2.270551
RightToeBase 7.163801 -0.000000 -0.000000
LeftUpLeg -74.631485 3.475941 -3.888833
LeftLeg -2.433526 -0.000000 0.000000
LeftFoot 6.185980 2.417964 -10.387458
LeftToeBase 11.142163 -0.000000 -0.000000
Spine 43.691301 -5.160015 -5.747595
RightShoulder -47.134295 -60.306998 -1.696761
RightArm -4.131946 -16.763469 75.178431
RightForeArm -32.815408 -0.000000 2.510888
RightHand 4.320702 -0.000000 52.249312
RightHandThumb1 -24.326973 -0.000000 -32.862282
LeftShoulder -39.749015 49.907766 7.820159
LeftArm -27.420976 12.119624 -87.177315
LeftForeArm 39.308310 0.000000 0.120893
LeftHand 3.571416 0.000000 -48.912633
LeftHandThumb1 -26.253704 0.000000 33.147579
Head 22.535360 3.824475 -9.270281
890
root -2.916726 32.731743 -9.772024 65.622475 -2.423398 2.345265
RightUpLeg -76.084736 -2.744501 4.643821
RightLeg -1.017625 -0.000000 0.000000
RightFoot 5.016226 -1.665646 2.287963
RightToeBase 7.114438 -0.000000 -0.000000
LeftUpLeg -74.630166 3.470452 -3.862980
LeftLeg -2.433428 -0.000000 0.000000
LeftFoot 6.190650 2.441946 -10.389392
LeftToeBase 11.126235 -0.000000 -0.000000
Spine 43.673613 -5.154685 -5.743292
RightShoulder -47.180819 -60.306232 -1.638791
RightArm -4.107716 -16.772865 75.174619
RightForeArm -32.802258 -0.000000 2.519603
RightHand 4.307076 -0.000000 52.255628
RightHandThumb1 -24.326973 -0.000000 -32.862282
LeftShoulder -39.752467 49.910223 7.832642
LeftArm -27.405503 12.135278 -87.190474
LeftForeArm 39.330405 -0.000000 0.129572
LeftHand 3.583829 -0.000000 -48.898831
LeftHandThumb1 -26.253704 0.000000 33.147579
Head 22.497147 3.814616 -9.251728
891
root -2.918546 32.732111 -9.770245 65.610121 -2.423662 2.349997
RightUpLeg -76.073055 -2.749383 4.646410
RightLeg -1.010673 -0.000000 0.000000
RightFoot 5.010965 -1.651790 2.268334
RightToeBase 7.104333 -0.000000 -0.000000
LeftUpLeg -74.567469 3.418263 -3.658241
LeftLeg -2.504753 -0.000000 0.000000
LeftFoot 6.189101 2.653828 -10.444338
LeftToeBase 11.144071 -0.000000 -0.000000
Spine 43.679372 -5.218398 -5.759274
RightShoulder -47.127601 -60.301462 -1.735130
RightArm -4.068281 -16.779415 75.185136
RightForeArm -32.844741 -0.000000 2.516005
RightHand 4.318304 -0.000000 52.244827
RightHandThumb1 -24.326973 -0.000000 -32.862282
LeftShoulder -39.808805 49.898197 7.751615
LeftArm -27.410998 12.192242 -87.226588
LeftForeArm 39.245843 -0.000000 0.125242
LeftHand 3.600589 -0.000000 -48.887532
LeftHandThumb1 -26.253704 0.000000 33.147579
Head 22.422878 3.911672 -9.324902
892
root -2.922334 32.731983 -9.768852 65.610860 -2.425388 2.344108
RightUpLeg -76.067127 -2.735795 4.638469
RightLeg -1.017364 -0.000000 0.000000
RightFoot 5.004937 -1.663477 2.293256
RightToeBase 7.132059 -0.000000 -0.000000
LeftUpLeg -74.565428 3.424221 -3.626578
LeftLeg -2.500627 -0.000000 0.000000
LeftFoot 6.174668 2.672357 -10.474126
LeftToeBase 11.134533 -0.000000 -0.000000
Spine 43.663998 -5.218916 -5.761047
RightShoulder -47.095650 -60.273601 -1.771831
RightArm -4.077052 -16.798061 75.194611
RightForeArm -32.831738 -0.000000 2.526804
RightHand 4.287837 0.000000 52.264016
RightHandThumb1 -24.326973 -0.000000 -32.862282
LeftShoulder -39.812310 49.889869 7.759612
LeftArm -27.409291 12.202402 -87.249484
LeftForeArm 39.203410 -0.000000 0.129185
LeftHand 3.594308 -0.000000 -48.881144
LeftHandThumb1 -26.253704 0.000000 33.147579
Head 22.368262 3.948288 -9.305452
893
root -2.926655 32.731833 -9.767770 65.602580 -2.415839 2.335434
RightUpLeg -76.049137 -2.724040 4.648226
RightLeg -1.026177 -0.000000 0.000000
RightFoot 5.014470 -1.668249 2.296316
RightToeBase 7.094902 -0.000000 -0.000000
LeftUpLeg -74.608494 3.480378 -3.793240
LeftLeg -2.417894 -0.000000 0.000000
LeftFoot 6.158621 2.489194 -10.414927
LeftToeBase 11.132187 -0.000000 -0.000000
Spine 43.661250 -5.221861 -5.743014
RightShoulder -47.087540 -60.250152 -1.794503
RightArm -4.071241 -16.837460 75.204748
RightForeArm -32.803994 -0.000000 2.532957
RightHand 4.257233 -0.000000 52.274358
RightHandThumb1 -24.326973 -0.000000 -32.862282
LeftShoulder -39.805334 49.876065 7.754425
LeftArm -27.420959 12.212816 -87.277144
LeftForeArm 39.215929 -0.000000 0.161927
LeftHand 3.637756 -0.000000 -48.876818
LeftHandThumb1 -26.253704 0.000000 33.147579
Head 22.308236 4.006639 -9.279103
894
root -2.928275 32.732450 -9.766943 65.594098 -2.418109 2.347243
RightUpLeg -76.043615 -2.732433 4.640503
RightLeg -1.019645 -0.000000 0.000000
RightFoot 4.999887 -1.667074 2.282140
RightToeBase 7.091245 -0.000000 -0.000000
LeftUpLeg -74.552159 3.428059 -3.619841
LeftLeg -2.487202 -0.000000 0.000000
LeftFoot 6.160780 2.679106 -10.473665
LeftToeBase 11.167844 -0.000000 -0.000000
Spine 43.663059 -5.223074 -5.734831
RightShoulder -47.081044 -60.217758 -1.801758
RightArm -4.084833 -16.910793 75.220401
RightForeArm -32.702732 0.000000 2.544651
RightHand 4.248573 -0.000000 52.277071
RightHandThumb1 -24.326973 -0.000000 -32.862282
LeftShoulder -39.791482 49.854894 7.783543
LeftArm -27.426502 12.208197 -87.293684
LeftForeArm 39.169302 -0.000000 0.180237
LeftHand 3.662726 -0.000000 -48.859457
LeftHandThumb1 -26.253704 0.000000 33.147579
Head 22.243076 4.010382 -9.280044
895
root -2.930915 32.732683 -9.765136 65.579722 -2.420741 2.347499
RightUpLeg -76.022253 -2.729039 4.637531
RightLeg -1.026496 -0.000000 0.000000
RightFoot 4.995010 -1.665233 2.276656
RightToeBase 7.137712 -0.000000 -0.000000
LeftUpLeg -74.524760 3.424429 -3.583232
LeftLeg -2.501983 -0.000000 0.000000
LeftFoot 6.166835 2.717229 -10.474755
LeftToeBase 11.150532 -0.000000 -0.000000
Spine 43.672646 -5.213058 -5.728614
RightShoulder -47.073666 -60.193636 -1.804506
RightArm -4.078485 -16.924047 75.234336
RightForeArm -32.678101 -0.000000 2.538918
RightHand 4.280813 0.000000 52.247067
RightHandThumb1 -24.326973 -0.000000 -32.862282
LeftShoulder -39.776650 49.814702 7.826272
LeftArm -27.425516 12.200401 -87.314934
LeftForeArm 39.182802 -0.000000 0.156228
LeftHand 3.700685 -0.000000 -48.893879
LeftHandThumb1 -26.253704 0.000000 33.147579
Head 22.188345 3.991984 -9.292363
896
root -2.934508 32.732602 -9.764055 65.558178 -2.415127 2.349018
RightUpLeg -75.990414 -2.726421 4.634205
RightLeg -1.041778 -0.000000 0.000000
RightFoot 5.000567 -1.676666 2.298790
RightToeBase 7.128581 -0.000000 -0.000000
LeftUpLeg -74.506011 3.432069 -3.590253
LeftLeg -2.495212 -0.000000 0.000000
LeftFoot 6.165399 2.700394 -10.473017
LeftToeBase 11.153373 -0.000000 -0.000000
Spine 43.687298 -5.205208 -5.714767
RightShoulder -47.057794 -60.179655 -1.821824
RightArm -4.069387 -16.914713 75.256132
RightForeArm -32.664662 0.000000 2.531703
RightHand 4.292781 -0.000000 52.223075
RightHandThumb1 -24.326973 -0.000000 -32.862282
LeftShoulder -39.745250 49.771138 7.872445
LeftArm -27.450205 12.201712 -87.343834
LeftForeArm 39.203578 -0.000000 0.167968
LeftHand 3.671797 -0.000000 -48.877124
LeftHandThumb1 -26.253704 0.000000 33.147579
Head 22.146406 3.974367 -9.278827
897
root -2.936894 32.731821 -9.763405 65.549434 -2.410125 2.345256
RightUpLeg -75.973838 -2.721430 4.639809
RightLeg -1.052093 -0.000000 0.000000
RightFoot 5.000424 -1.679530 2.280878
RightToeBase 7.123095 -0.000000 -0.000000
LeftUpLeg -74.542199 3.473328 -3.740032
LeftLeg -2.415884 -0.000000 0.000000
LeftFoot 6.130905 2.552309 -10.456792
LeftToeBase 11.206958 -0.000000 -0.000000
Spine 43.684468 -5.204448 -5.697883
RightShoulder -47.018449 -60.164448 -1.853795
RightArm -4.067085 -16.904908 75.275757
RightForeArm -32.620860 -0.000000 2.532665
RightHand 4.295178 -0.000000 52.177035
RightHandThumb1 -24.326973 -0.000000 -32.862282
LeftShoulder -39.741503 49.725336 7.879344
LeftArm -27.476015 12.230059 -87.377107
LeftForeArm 39.193080 -0.000000 0.177886
LeftHand 3.633507 0.000000 -48.933291
LeftHandThumb1 -26.253704 0.000000 33.147579
Head 22.114338 3.983147 -9.277035
898
root -2.939222 32.732297 -9.762960 65.547338 -2.413458 2.353491
RightUpLeg -75.973779 -2.723332 4.631448
RightLeg -1.047447 -0.000000 0.000000
RightFoot 4.990347 -1.683584 2.263748
RightToeBase 7.122123 -0.000000 -0.000000
LeftUpLeg -74.497962 3.429138 -3.566556
LeftLeg -2.483509 -0.000000 0.000000
LeftFoot 6.162340 2.718014 -10.460948
LeftToeBase 11.104084 -0.000000 -0.000000
Spine 43.676663 -5.204553 -5.694321
RightShoulder -46.975084 -60.147364 -1.895952
RightArm -4.066564 -16.889580 75.305468
RightForeArm -32.629255 0.000000 2.535311
RightHand 4.260621 0.000000 52.162182
RightHandThumb1 -24.326973 -0.000000 -32.862282
LeftShoulder -39.730793 49.678417 7.903726
LeftArm -27.505237 12.256524 -87.407771
LeftForeArm 39.211504 0.000000 0.193576
LeftHand 3.641600 -0.000000 -48.974128
LeftHandThumb1 -26.253704 0.000000 33.147579
Head 22.092562 3.992201 -9.273050
899
root -2.942333 32.731968 -9.762619 65.535421 -2.405110 2.351212
RightUpLeg -75.956593 -2.719734 4.641003
RightLeg -1.055846 -0.000000 0.000000
RightFoot 4.994469 -1.688694 2.272198
RightToeBase 7.119027 -0.000000 -0.000000
LeftUpLeg -74.536945 3.475864 -3.728156
LeftLeg -2.401781 -0.000000 0.000000
LeftFoot 6.144412 2.554032 -10.406300
LeftToeBase 11.142615 -0.000000 -0.000000
Spine 43.677680 -5.191124 -5.676360
RightShoulder -46.918543 -60.128330 -1.933206
RightArm -4.083111 -16.893488 75.330506
RightForeArm -32.590891 -0.000000 2.553299
RightHand 4.229150 -0.000000 52.169970
RightHandThumb1 -24.326973 -0.000000 -32.862282
LeftShoulder -39.711585 49.625793 7.934805
LeftArm -27.554810 12.319847 -87.459561
LeftForeArm 39.113642 -0.000000 0.213983
LeftHand 3.654700 -0.000000 -48.973440
LeftHandThumb1 -26.253704 0.000000 33.147579
Head 22.073585 3.988372 -9.251476
900
root -2.945174 32.731531 -9.762464 65.517576 -2.405104 2.356587
RightUpLeg -75.939317 -2.720063 4.633455
RightLeg -1.053446 -0.000000 0.000000
RightFoot 4.983127 -1.700023 2.270374
RightToeBase 7.121213 -0.000000 -0.000000
LeftUpLeg -74.528332 3.478758 -3.737334
LeftLeg -2.384810 -0.000000 0.000000
LeftFoot 6.144386 2.537142 -10.388592
LeftToeBase 11.114055 -0.000000 -0.000000
Spine 43.680827 -5.136350 -5.653223
RightShoulder -46.898962 -60.101622 -1.910458
RightArm -4.130429 -16.891160 75.359564
RightForeArm -32.557802 0.000000 2.577666
RightHand 4.220604 -0.000000 52.213722
RightHandThumb1 -24.326973 -0.000000 -32.862282
LeftShoulder -39.662029 49.615521 8.022281
LeftArm -27.547455 12.357351 -87.504931
LeftForeArm 39.098891 -0.000000 0.218588
LeftHand 3.677984 -0.000000 -48.991431
LeftHandThumb1 -26.253704 0.000000 33.147579
Head 22.080595 3.932195 -9.165978
